HIERARCHY
ROOT hip
{
  OFFSET 0 0 0
  CHANNELS 6 Xposition Yposition Zposition Zrotation Yrotation Xrotation
  JOINT abdomen
  {
    OFFSET 0 20.6881 -0.73152
    CHANNELS 3 Zrotation Xrotation Yrotation
    JOINT chest
    {
      OFFSET 0 11.7043 -0.48768
      CHANNELS 3 Zrotation Xrotation Yrotation
      JOINT neck
      {
        OFFSET 0 22.1894 -2.19456
        CHANNELS 3 Zrotation Xrotation Yrotation
        JOINT head
        {
          OFFSET -0.24384 7.07133 1.2192
          CHANNELS 3 Zrotation Xrotation Yrotation
          JOINT leftEye
          {
            OFFSET 4.14528 8.04674 8.04672
            CHANNELS 3 Zrotation Xrotation Yrotation
            End Site
            {
              OFFSET 1 0 0
            }
          }
          JOINT rightEye
          {
            OFFSET -3.6576 8.04674 8.04672
            CHANNELS 3 Zrotation Xrotation Yrotation
            End Site
            {
              OFFSET 1 0 0
            }
          }
        }
      }
      JOINT rCollar
      {
        OFFSET -2.68224 19.2634 -4.8768
        CHANNELS 3 Zrotation Xrotation Yrotation
        JOINT rShldr
        {
          OFFSET -8.77824 -1.95073 1.46304
          CHANNELS 3 Zrotation Xrotation Yrotation
          JOINT rForeArm
          {
            OFFSET -28.1742 -1.7115 0.48768
            CHANNELS 3 Zrotation Xrotation Yrotation
            JOINT rHand
            {
              OFFSET -22.5879 0.773209 7.07136
              CHANNELS 3 Zrotation Xrotation Yrotation
              JOINT rThumb1
              {
                OFFSET -1.2192 -0.487915 3.41376
                CHANNELS 3 Zrotation Xrotation Yrotation
                JOINT rThumb2
                {
                  OFFSET -3.37035 -0.52449 3.41376
                  CHANNELS 3 Zrotation Xrotation Yrotation
                  End Site
                  {
                    OFFSET -1.78271 -1.18214 1.43049
                  }
                }
              }
              JOINT rIndex1
              {
                OFFSET -7.75947 0.938293 5.60832
                CHANNELS 3 Zrotation Xrotation Yrotation
                JOINT rIndex2
                {
                  OFFSET -2.54057 -0.884171 1.56538
                  CHANNELS 3 Zrotation Xrotation Yrotation
                  End Site
                  {
                    OFFSET -1.62519 -0.234802 1.16502
                  }
                }
              }
              JOINT rMid1
              {
                OFFSET -8.24714 1.18213 3.41376
                CHANNELS 3 Zrotation Xrotation Yrotation
                JOINT rMid2
                {
                  OFFSET -3.10165 -0.590103 1.0647
                  CHANNELS 3 Zrotation Xrotation Yrotation
                  End Site
                  {
                    OFFSET -2.48547 -0.328903 0.83742
                  }
                }
              }
              JOINT rRing1
              {
                OFFSET -8.82822 0.546677 1.51678
                CHANNELS 3 Zrotation Xrotation Yrotation
                JOINT rRing2
                {
                  OFFSET -2.60934 -0.819778 -0.0198488
                  CHANNELS 3 Zrotation Xrotation Yrotation
                  End Site
                  {
                    OFFSET -2.33842 -0.294052 0.168128
                  }
                }
              }
              JOINT rPinky1
              {
                OFFSET -8.27202 -0.0477905 -0.4584
                CHANNELS 3 Zrotation Xrotation Yrotation
                JOINT rPinky2
                {
                  OFFSET -1.82734 -0.647385 -0.700984
                  CHANNELS 3 Zrotation Xrotation Yrotation
                  End Site
                  {
                    OFFSET -1.69225 -0.51767 -0.607171
                  }
                }
              }
            }
          }
        }
      }
      JOINT lCollar
      {
        OFFSET 2.68224 19.2634 -4.8768
        CHANNELS 3 Zrotation Xrotation Yrotation
        JOINT lShldr
        {
          OFFSET 8.77824 -1.95073 1.46304
          CHANNELS 3 Zrotation Xrotation Yrotation
          JOINT lForeArm
          {
            OFFSET 28.1742 -1.7115 0.48768
            CHANNELS 3 Zrotation Xrotation Yrotation
            JOINT lHand
            {
              OFFSET 22.5879 0.773209 7.07136
              CHANNELS 3 Zrotation Xrotation Yrotation
              JOINT lThumb1
              {
                OFFSET 1.2192 -0.487915 3.41376
                CHANNELS 3 Zrotation Xrotation Yrotation
                JOINT lThumb2
                {
                  OFFSET 3.37035 -0.52449 3.41376
                  CHANNELS 3 Zrotation Xrotation Yrotation
                  End Site
                  {
                    OFFSET 1.78271 -1.18214 1.43049
                  }
                }
              }
              JOINT lIndex1
              {
                OFFSET 7.75947 0.938293 5.60832
                CHANNELS 3 Zrotation Xrotation Yrotation
                JOINT lIndex2
                {
                  OFFSET 2.54057 -0.884171 1.56538
                  CHANNELS 3 Zrotation Xrotation Yrotation
                  End Site
                  {
                    OFFSET 1.62519 -0.234802 1.16502
                  }
                }
              }
              JOINT lMid1
              {
                OFFSET 8.24714 1.18213 3.41376
                CHANNELS 3 Zrotation Xrotation Yrotation
                JOINT lMid2
                {
                  OFFSET 3.10165 -0.590103 1.0647
                  CHANNELS 3 Zrotation Xrotation Yrotation
                  End Site
                  {
                    OFFSET 2.48547 -0.328903 0.83742
                  }
                }
              }
              JOINT lRing1
              {
                OFFSET 8.82822 0.546677 1.51678
                CHANNELS 3 Zrotation Xrotation Yrotation
                JOINT lRing2
                {
                  OFFSET 2.60934 -0.819778 -0.0198488
                  CHANNELS 3 Zrotation Xrotation Yrotation
                  End Site
                  {
                    OFFSET 2.33842 -0.294052 0.168128
                  }
                }
              }
              JOINT lPinky1
              {
                OFFSET 8.27202 -0.0477905 -0.4584
                CHANNELS 3 Zrotation Xrotation Yrotation
                JOINT lPinky2
                {
                  OFFSET 1.82734 -0.647385 -0.700984
                  CHANNELS 3 Zrotation Xrotation Yrotation
                  End Site
                  {
                    OFFSET 1.69225 -0.51767 -0.607171
                  }
                }
              }
            }
          }
        }
      }
    }
  }
  JOINT rButtock
  {
    OFFSET -8.77824 4.35084 1.2192
    CHANNELS 3 Zrotation Xrotation Yrotation
    JOINT rThigh
    {
      OFFSET 0 -1.70687 -2.19456
      CHANNELS 3 Zrotation Xrotation Yrotation
      JOINT rShin
      {
        OFFSET 0 -36.8199 0.73152
        CHANNELS 3 Zrotation Xrotation Yrotation
        JOINT rFoot
        {
          OFFSET 0.73152 -45.1104 -5.12064
          CHANNELS 3 Zrotation Xrotation Yrotation
          End Site
          {
            OFFSET -1.1221 -3.69964 12.103
          }
        }
      }
    }
  }
  JOINT lButtock
  {
    OFFSET 8.77824 4.35084 1.2192
    CHANNELS 3 Zrotation Xrotation Yrotation
    JOINT lThigh
    {
      OFFSET 0 -1.70687 -2.19456
      CHANNELS 3 Zrotation Xrotation Yrotation
      JOINT lShin
      {
        OFFSET 0 -36.8199 0.73152
        CHANNELS 3 Zrotation Xrotation Yrotation
        JOINT lFoot
        {
          OFFSET -0.73152 -45.1104 -5.12064
          CHANNELS 3 Zrotation Xrotation Yrotation
          End Site
          {
            OFFSET 1.1221 -3.69964 12.103
          }
        }
      }
    }
  }
}
MOTION
Frames:	4
Frame Time:	0.03333
0.01285052765160799 -0.3315391540527344 0.08082794398069382 -19.947554916143417 -3.380850702524185 3.0409162491559982 -1.5776976384222507 13.631330877542496 4.1275206953287125 2.334035988897085 -9.538815692067146 1.2306099850684404 -4.508205950260162 14.821999669075012 -2.8493548929691315 8.09734158217907 -23.702305555343628 -4.146379306912422 -0.03691569319926202 0.06550207966938615 -0.00962291203904897 -0.050558309303596616 0.024283683160319924 0.008244120399467647 -0.007201699772849679 0.06050560099538416 -0.0009680469520390034 44.550341069698334 28.234283924102783 12.119299918413162 -23.62532615661621 -27.83002406358719 61.76713228225708 -4.399693161249161 -10.691442042589188 -4.082188345491886 0.05411543184891343 0.0344054467859678 0.1265611220151186 0.019467865931801498 0.013425482902675867 -0.10614374885335565 -0.01303643686696887 -0.011601968435570598 0.04634075565263629 7.772564962506294 5.499895401299 0.3762581432238221 0.02640738763147965 -0.009632849832996726 0.05391630402300507 2.9652853310108185 1.044141137972474 0.09512024698778987 -0.052918558940291405 -0.0038564088754355907 -0.021289313735906035 10.26426874101162 0.6799179408699274 0.015723779797554016 -0.051832840545102954 0.03568837302736938 0.007124408148229122 2.267348226159811 -0.7695101760327816 -0.22757701110094786 -0.023487433791160583 0.03957000095397234 0.0978975067846477 -51.70293688774109 27.990304827690125 -24.783536195755005 21.94334641098976 -24.554269015789032 -56.36583924293518 5.006622411310673 -11.851555109024048 3.434280641376972 -0.10678887250833213 -0.027653111319523305 0.009835754754021764 0.051878500962629914 0.008312998688779771 -0.07456373423337936 -0.09733221028000116 -0.04049719136673957 0.03299046366009861 -7.761872336268425 5.488297194242477 -0.45833675656467676 -0.025177125935442746 0.06899960688315332 -0.02692788024432957 -2.9911059513688087 0.9979145228862762 -0.07190898642875254 -0.24987383745610714 0.025024449569173157 -0.0022229331079870462 -10.310693755745888 0.7936959061771631 0.030571315437555313 0.009842030704021454 0.043409818899817765 -0.049587381072342396 -2.2986772656440735 -0.7654427736997604 0.12604544637724757 0.03348411584738642 -0.04645336652174592 -0.09097166592255235 -30.859163403511047 -30.41455775499344 -25.664952993392944 -20.322478115558624 57.39598989486694 21.195103973150253 -4.74311213940382 -10.325567945837975 -10.349059402942657 0.003387703327462077 -0.07477238599676639 0.04964297928381711 37.44562268257141 -32.55777418613434 30.264042913913727 20.438239574432373 59.468350410461426 -17.648819983005524 4.84342809766531 -10.08606344461441 12.080181241035461
0.0145112881436944 -0.9951667189598083 0.20996107906103134 -21.75155907869339 -2.5380925834178925 4.994027093052864 -1.7481062561273575 13.916620016098022 4.449884667992592 2.5310876592993736 -9.758173450827599 1.3017098139971495 -4.45000134408474 15.142436474561691 -2.8271787241101265 8.467939049005508 -24.73294973373413 -4.019083008170128 -0.07922311371657997 -0.09687030455097556 -0.062386400531977415 0.0072931149043142796 0.04079194623045623 -0.023164824815467 0.011425204575061798 0.08677837264258415 -0.07734577171504498 50.45847773551941 31.91756308078766 12.690802216529846 -24.122366309165955 -30.174030661582947 66.5721595287323 -5.265320464968681 -13.730154186487198 -5.330225899815559 0.060163839370943606 0.1253773458302021 0.040903142653405666 -0.03637108951807022 -0.006650998257100582 -0.04858288331888616 0.05819248384796083 0.025294875958934426 -0.0075828458648175 7.8320590406656265 5.542074143886566 0.3280616761185229 0.044588015880435705 -0.043355137459002435 0.061551908729597926 3.0196791887283325 1.015269085764885 0.1397845591418445 0.0146455317735672 -0.018401986453682184 -0.016048007528297603 10.337126925587654 0.7155534345656633 0.07287977845408022 -0.017938697710633278 0.03047788341064006 0.02301461063325405 2.265061140060425 -0.801915368065238 -0.17181120347231627 -0.06384172942489386 0.04410445340909064 0.06876536936033517 -58.400450348854065 30.312443375587463 -24.20435607433319 22.57598966360092 -26.680469512939453 -60.25999367237091 5.789510607719421 -10.998536869883537 3.360578566789627 -0.0596316356677562 -0.00917991274036467 -0.04533207742497325 0.09180303546600044 -0.012059960863552988 -0.024326713755726814 -0.025924367364495993 -0.08635416452307254 0.005690442631021142 -7.770730331540108 5.528257414698601 -0.5184483295306563 -0.08915060316212475 0.09017611853778362 -0.06765392899978906 -2.9965323954820633 1.0091997496783733 -0.05393900326453149 -0.024277931079268456 -0.04901624342892319 -0.053791754180565476 -10.348756313323975 0.7889154553413391 0.030527383787557483 -0.0004301068838685751 0.05904010380618274 -0.04582225112244487 -2.3196756094694138 -0.7956484705209732 0.06634879857301712 0.08925696951337159 -0.056960396468639374 -0.08762384997680783 -32.64306306838989 -31.740944981575012 -28.343516886234283 -21.594569385051727 61.35942041873932 21.61688804626465 -4.941575154662132 -10.627832785248756 -11.500356048345566 0.011423664400354028 -0.08214737637899816 0.043258866062387824 42.668795585632324 -34.29063677787781 35.77067971229553 19.722502827644348 63.44058394432068 -18.61117109656334 4.5662157610058784 -9.950024485588074 12.378625273704529
0.020874506793916225 0.1674940437078476 0.12725061178207397 -105.65480947494507 -67.04988241195679 135.00089049339294 2.4089281260967255 14.373955428600311 4.2505281418561935 1.5187331289052963 -9.612471833825111 0.7016867911443114 -2.691241018474102 14.01824489235878 3.0287085101008415 6.197440400719643 -25.709059238433838 6.434749513864517 -0.13464256539009511 -0.14800800243392587 0.021441337885335088 0.2441847464069724 -0.016106036491692066 -0.03499829093925655 0.06937968428246677 0.17331602750346065 -0.41050509084016085 64.90820288658142 45.02898931503296 -7.216802537441254 -26.998279094696045 -39.51229155063629 84.86083388328552 -21.761601269245148 -50.76438367366791 -22.77999848127365 0.2075427956879139 0.1092475256882608 0.1148121664300561 0.2374900784343481 -0.09222862659953535 -0.16580682713538408 0.03341127187013626 0.1893344521522522 0.20026457961648703 7.841257005929947 5.430758446455002 0.3114427928812802 0.26355278911069036 0.02002179971896112 -0.009667367557995021 2.9189427942037582 0.9259759169071913 0.09727807366289198 0.2785990387201309 -0.30060323188081384 -0.07352884160354733 10.403130054473877 0.5619017500430346 0.059325360925868154 0.1243548165075481 -0.01904222765006125 0.2327899681404233 2.005862519145012 -1.003903727978468 -0.09146642871201038 -0.01819137018173933 -0.018897084519267082 -0.23479714058339596 -44.51003015041351 17.82610461115837 -50.22358059883118 21.68078362941742 -23.444842994213104 -55.06894290447235 7.825484946370125 0.7116128504276276 3.9385101199150085 -0.07382653013337404 -0.21329718176275492 0.22769938688725233 0.28972515603527427 0.274453810416162 -0.00939269782975316 -0.18504463601857424 -0.04772655665874481 -0.06756324204616249 -7.764535769820213 5.638516992330551 -0.5355988349765539 -0.012770514440489933 0.44602462090551853 -0.17284932313486934 -2.9719278216362 0.8617263659834862 0.030679117189720273 0.2905718330293894 0.08336064638569951 -0.01400883193127811 -10.339063480496407 0.8476039487868547 -0.07298740209080279 0.14015630702488124 0.03668496559839696 -0.15091293957084417 -2.307273242622614 -1.194959320127964 -0.12912520905956626 0.032935054041445255 -0.3313351864926517 -0.1356955524533987 -23.064492344856262 -26.013548970222473 -23.31821322441101 -19.131022095680237 62.34542727470398 19.626963883638382 -8.979888930916786 -15.592378377914429 -17.982400953769684 -0.3199533373117447 -0.23598957108333707 -0.22396843414753675 58.54591727256775 -44.07658517360687 52.83893287181854 23.368096947669983 71.23768508434296 -22.90149986743927 3.0569954216480255 -5.698206871747971 5.183065831661224
-0.004717650823295116 3.918931722640991 0.08577031642198563 -179.97485160827637 -115.06291508674622 187.02067136764526 3.935597240924835 15.314215868711472 6.575525254011154 0.674775056540966 -10.291357040405273 1.396698821336031 -2.100962083786726 13.20783019065857 7.267195880413055 6.185777485370636 -23.53545606136322 14.232624471187592 0.15672776964493096 -0.07364560151472688 0.14829823630861938 -0.1139021955896169 -0.008793831802904606 -0.5289980443194509 0.1035627827513963 -0.062286126776598394 -0.6532489461824298 63.954039216041565 55.984734892845154 -5.263857655227184 -29.376221001148224 -49.44304704666138 102.73951649665833 -40.04060089588165 -80.70330262184143 -39.71813768148422 -0.07646095706149936 -0.25962880114093423 0.20252132322639227 0.6924501853063703 -0.7794913463294506 -0.386737366206944 -0.2571104373782873 0.4403374996036291 0.5257482547312975 7.636385187506676 5.288860537111759 0.7720083184540272 0.3960598027333617 -0.3536596102640033 0.10166213382035494 2.559439279139042 1.1063646152615547 0.27786962455138564 0.8143835328519344 -0.39561971090734005 0.10862199473194778 10.213652104139328 0.2275960799306631 -0.36431388929486275 0.20006121369078755 -0.0875850731972605 0.30472123995423317 1.5117503330111504 -1.4360360987484455 -0.04272251855581999 -0.18520952900871634 0.12248869054019451 -0.665816436521709 -44.390282928943634 5.218367725610733 -56.195476055145264 24.71752166748047 -28.912367820739746 -64.32470977306366 8.433679193258286 -1.1064541339874268 1.5372123755514622 0.1959567004814744 -0.3725567786023021 0.7229422498494387 0.18952118000015616 0.5868627643212676 -0.5181042943149805 -0.7282507605850697 -0.032398093608208 -0.2976079797372222 -7.902104929089546 5.7794637233018875 -0.5282725486904383 0.008663793123560026 0.37661416456103325 -0.44206840451806784 -3.009021431207657 0.6925143906846642 0.4954215232282877 0.8401021454483271 0.19912028219550848 -0.010757847921922803 -10.40902554988861 0.9944201074540615 -0.45989708974957466 -0.06936544552445412 0.25229094782844186 -0.18706039991229773 -2.1387136727571487 -2.0008306950330734 0.2320444188080728 -0.2046619774773717 -0.7854233030229807 -0.17184538068249822 -18.78276139497757 -29.25006330013275 -28.004783391952515 -32.75315433740616 70.62127590179443 31.30270689725876 -12.44912177324295 -21.436528265476227 -17.404988408088684 -0.8761261403560638 -0.42375277262181044 -0.6108495499938726 75.3616189956665 -46.810877323150635 69.55589711666107 24.2704376578331 76.95988297462463 -18.135462552309036 2.501613534986973 -3.290194720029831 1.9645685702562332
